<svg xmlns="http://www.w3.org/2000/svg" width="1200" height="630" viewBox="0 0 1200 630">
  <defs>
    <linearGradient id="bgGrad" x1="0%" y1="0%" x2="100%" y2="100%">
      <stop offset="0%" style="stop-color:#F5F0EB;stop-opacity:1" />
      <stop offset="100%" style="stop-color:#FFFFFF;stop-opacity:1" />
    </linearGradient>
    <linearGradient id="accentLine" x1="0%" y1="0%" x2="100%" y2="0%">
      <stop offset="0%" style="stop-color:#1B3A5C;stop-opacity:0" />
      <stop offset="30%" style="stop-color:#1B3A5C;stop-opacity:1" />
      <stop offset="70%" style="stop-color:#2E7D52;stop-opacity:1" />
      <stop offset="100%" style="stop-color:#2E7D52;stop-opacity:0" />
    </linearGradient>
  </defs>

  <rect width="1200" height="630" fill="url(#bgGrad)"/>

  <g opacity="0.04" stroke="#1B3A5C" stroke-width="1">
    <line x1="0" y1="105" x2="1200" y2="105"/>
    <line x1="0" y1="210" x2="1200" y2="210"/>
    <line x1="0" y1="315" x2="1200" y2="315"/>
    <line x1="0" y1="420" x2="1200" y2="420"/>
    <line x1="0" y1="525" x2="1200" y2="525"/>
    <line x1="200" y1="0" x2="200" y2="630"/>
    <line x1="400" y1="0" x2="400" y2="630"/>
    <line x1="600" y1="0" x2="600" y2="630"/>
    <line x1="800" y1="0" x2="800" y2="630"/>
    <line x1="1000" y1="0" x2="1000" y2="630"/>
  </g>

  <rect x="0" y="0" width="1200" height="8" fill="#1B3A5C"/>

  <rect x="80" y="60" width="220" height="48" rx="6" fill="#1B3A5C"/>
  <text x="190" y="92" font-family="Arial, sans-serif" font-size="22" font-weight="bold" fill="#FFFFFF" text-anchor="middle">$15K/MONTH</text>

  <rect x="320" y="60" width="160" height="48" rx="6" fill="#2E7D52" opacity="0.15"/>
  <text x="400" y="92" font-family="Arial, sans-serif" font-size="18" fill="#2E7D52" text-anchor="middle" font-weight="bold">AI Income</text>

  <text x="80" y="185" font-family="Arial, sans-serif" font-size="52" font-weight="bold" fill="#1B3A5C">AI Agent Business</text>
  <text x="80" y="250" font-family="Arial, sans-serif" font-size="52" font-weight="bold" fill="#1B3A5C">for Local Clinics</text>

  <text x="80" y="320" font-family="Arial, sans-serif" font-size="28" fill="#4A5568">How developers are building $15K/month</text>
  <text x="80" y="360" font-family="Arial, sans-serif" font-size="28" fill="#4A5568">serving dental offices in 2026</text>

  <rect x="80" y="410" width="240" height="100" rx="8" fill="#1B3A5C" opacity="0.07"/>
  <text x="200" y="450" font-family="Arial, sans-serif" font-size="36" font-weight="bold" fill="#1B3A5C" text-anchor="middle">84%</text>
  <text x="200" y="478" font-family="Arial, sans-serif" font-size="16" fill="#4A5568" text-anchor="middle">Profit Margin</text>
  <text x="200" y="498" font-family="Arial, sans-serif" font-size="14" fill="#6B7280" text-anchor="middle">per client</text>

  <rect x="340" y="410" width="240" height="100" rx="8" fill="#2E7D52" opacity="0.07"/>
  <text x="460" y="450" font-family="Arial, sans-serif" font-size="36" font-weight="bold" fill="#2E7D52" text-anchor="middle">$2,500</text>
  <text x="460" y="478" font-family="Arial, sans-serif" font-size="16" fill="#4A5568" text-anchor="middle">Monthly Rate</text>
  <text x="460" y="498" font-family="Arial, sans-serif" font-size="14" fill="#6B7280" text-anchor="middle">per clinic</text>

  <rect x="600" y="410" width="240" height="100" rx="8" fill="#1B3A5C" opacity="0.07"/>
  <text x="720" y="450" font-family="Arial, sans-serif" font-size="36" font-weight="bold" fill="#1B3A5C" text-anchor="middle">6 clients</text>
  <text x="720" y="478" font-family="Arial, sans-serif" font-size="16" fill="#4A5568" text-anchor="middle">Target Portfolio</text>
  <text x="720" y="498" font-family="Arial, sans-serif" font-size="14" fill="#6B7280" text-anchor="middle">in 8-12 months</text>

  <text x="80" y="575" font-family="Arial, sans-serif" font-size="20" fill="#1B3A5C" font-weight="bold">Ethan Moore</text>
  <text x="80" y="600" font-family="Arial, sans-serif" font-size="16" fill="#6B7280">PassiveYieldLab.com — 2026</text>

  <rect x="0" y="618" width="1200" height="4" fill="url(#accentLine)"/>

  <circle cx="1050" cy="315" r="180" fill="#1B3A5C" opacity="0.04"/>
  <circle cx="1050" cy="315" r="130" fill="#1B3A5C" opacity="0.04"/>
  <circle cx="1050" cy="315" r="80" fill="#1B3A5C" opacity="0.05"/>
  <text x="1050" y="295" font-family="Arial, sans-serif" font-size="60" fill="#1B3A5C" opacity="0.15" text-anchor="middle">&#x1F916;</text>
  <text x="1050" y="360" font-family="Arial, sans-serif" font-size="24" fill="#1B3A5C" opacity="0.2" text-anchor="middle">AI AGENTS</text>
</svg>
