<svg xmlns="http://www.w3.org/2000/svg" width="1200" height="630" viewBox="0 0 1200 630">
  <defs>
    <linearGradient id="bgGrad" x1="0%" y1="0%" x2="100%" y2="100%">
      <stop offset="0%" style="stop-color:#F5F0EB;stop-opacity:1" />
      <stop offset="100%" style="stop-color:#FFFFFF;stop-opacity:1" />
    </linearGradient>
    <linearGradient id="bottomLine" x1="0%" y1="0%" x2="100%" y2="0%">
      <stop offset="0%" style="stop-color:#1B3A5C;stop-opacity:0" />
      <stop offset="30%" style="stop-color:#1B3A5C;stop-opacity:1" />
      <stop offset="70%" style="stop-color:#DC2626;stop-opacity:1" />
      <stop offset="100%" style="stop-color:#DC2626;stop-opacity:0" />
    </linearGradient>
    <linearGradient id="alertGrad" x1="0%" y1="0%" x2="0%" y2="100%">
      <stop offset="0%" style="stop-color:#DC2626;stop-opacity:0.08" />
      <stop offset="100%" style="stop-color:#DC2626;stop-opacity:0" />
    </linearGradient>
  </defs>

  <rect width="1200" height="630" fill="url(#bgGrad)"/>

  <g opacity="0.04" stroke="#1B3A5C" stroke-width="1">
    <line x1="0" y1="105" x2="1200" y2="105"/>
    <line x1="0" y1="210" x2="1200" y2="210"/>
    <line x1="0" y1="315" x2="1200" y2="315"/>
    <line x1="0" y1="420" x2="1200" y2="420"/>
    <line x1="0" y1="525" x2="1200" y2="525"/>
    <line x1="200" y1="0" x2="200" y2="630"/>
    <line x1="400" y1="0" x2="400" y2="630"/>
    <line x1="600" y1="0" x2="600" y2="630"/>
    <line x1="800" y1="0" x2="800" y2="630"/>
    <line x1="1000" y1="0" x2="1000" y2="630"/>
  </g>

  <!-- Warning triangle accent -->
  <polygon points="920,80 1100,80 1010,220" fill="url(#alertGrad)" stroke="none"/>
  <polygon points="920,80 1100,80 1010,220" fill="none" stroke="#DC2626" stroke-width="1.5" opacity="0.25"/>
  <!-- Exclamation inside triangle -->
  <text x="1010" y="165" font-family="Arial Black, Arial, sans-serif" font-size="60" fill="#DC2626" text-anchor="middle" opacity="0.18" font-weight="900">!</text>

  <circle cx="1120" cy="500" r="110" fill="none" stroke="#DC2626" stroke-width="1" opacity="0.06"/>
  <circle cx="100" cy="560" r="90" fill="none" stroke="#1B3A5C" stroke-width="1" opacity="0.05"/>

  <!-- Left accent bar -->
  <rect x="60" y="155" width="4" height="320" rx="2" fill="#DC2626" opacity="0.6"/>

  <!-- Brand header -->
  <text x="80" y="100" font-family="Arial Black, Arial, sans-serif" font-size="32" font-weight="900" fill="#1B3A5C" letter-spacing="1">PASSIVE YIELD LAB</text>
  <text x="80" y="122" font-family="Arial, sans-serif" font-size="13" fill="#64748B" letter-spacing="4">EARN MORE. WORK LESS.</text>
  <line x1="80" y1="135" x2="460" y2="135" stroke="#1B3A5C" stroke-width="1" opacity="0.3"/>

  <!-- Warning badge -->
  <rect x="80" y="153" width="170" height="30" rx="4" fill="#DC2626" opacity="0.10"/>
  <rect x="80" y="153" width="170" height="30" rx="4" fill="none" stroke="#DC2626" stroke-width="1.5" opacity="0.7"/>
  <text x="165" y="173" font-family="Arial, sans-serif" font-size="13" fill="#DC2626" text-anchor="middle" letter-spacing="2" font-weight="700">⚠ JULY 2026 ALERT</text>

  <!-- Main title -->
  <text x="80" y="255" font-family="Arial Black, Arial, sans-serif" font-size="52" font-weight="900" fill="#1E293B" letter-spacing="-1">Token Unlock</text>
  <text x="80" y="315" font-family="Arial Black, Arial, sans-serif" font-size="52" font-weight="900" fill="#DC2626" letter-spacing="-1">Warning</text>

  <!-- Subtitle -->
  <text x="80" y="365" font-family="Arial, sans-serif" font-size="20" fill="#64748B" letter-spacing="0.2">$1.9B in new supply · July 6 &amp; July 11 · My 4-step hedge</text>

  <!-- Data stat cards -->
  <rect x="80" y="393" width="165" height="58" rx="6" fill="#FEE2E2" opacity="0.9"/>
  <text x="162" y="416" font-family="Arial Black, Arial, sans-serif" font-size="22" fill="#DC2626" text-anchor="middle" font-weight="900">$630M</text>
  <text x="162" y="434" font-family="Arial, sans-serif" font-size="12" fill="#7F1D1D" text-anchor="middle" font-weight="600">HYPE · July 6</text>
  <text x="162" y="447" font-family="Arial, sans-serif" font-size="10" fill="#9CA3AF" text-anchor="middle">Hyperliquid</text>

  <rect x="258" y="393" width="165" height="58" rx="6" fill="#FEE2E2" opacity="0.9"/>
  <text x="340" y="416" font-family="Arial Black, Arial, sans-serif" font-size="22" fill="#DC2626" text-anchor="middle" font-weight="900">$812M</text>
  <text x="340" y="434" font-family="Arial, sans-serif" font-size="12" fill="#7F1D1D" text-anchor="middle" font-weight="600">RAIN · July 11</text>
  <text x="340" y="447" font-family="Arial, sans-serif" font-size="10" fill="#9CA3AF" text-anchor="middle">Rain</text>

  <rect x="436" y="393" width="165" height="58" rx="6" fill="#1B3A5C" opacity="0.08"/>
  <rect x="436" y="393" width="165" height="58" rx="6" fill="none" stroke="#1B3A5C" stroke-width="1.5" opacity="0.3"/>
  <text x="518" y="416" font-family="Arial Black, Arial, sans-serif" font-size="22" fill="#1B3A5C" text-anchor="middle" font-weight="900">4 Steps</text>
  <text x="518" y="434" font-family="Arial, sans-serif" font-size="12" fill="#1B3A5C" text-anchor="middle" font-weight="600">Hedge Playbook</text>
  <text x="518" y="447" font-family="Arial, sans-serif" font-size="10" fill="#9CA3AF" text-anchor="middle">Protect your positions</text>

  <!-- Tag pills -->
  <rect x="80" y="470" width="145" height="34" rx="17" fill="#1B3A5C" opacity="0.09"/>
  <rect x="80" y="470" width="145" height="34" rx="17" fill="none" stroke="#1B3A5C" stroke-width="1.5" opacity="0.4"/>
  <text x="152" y="492" font-family="Arial, sans-serif" font-size="12" fill="#1B3A5C" text-anchor="middle" letter-spacing="2" font-weight="700">RISK · TIMING</text>

  <!-- Bottom branding -->
  <text x="1140" y="600" font-family="Arial, sans-serif" font-size="20" fill="#1B3A5C" text-anchor="end" opacity="0.8" letter-spacing="1">passiveyieldlab.com</text>

  <rect x="0" y="618" width="1200" height="4" fill="url(#bottomLine)"/>
</svg>
